<svg xmlns="http://www.w3.org/2000/svg" xmlns:xlink="http://www.w3.org/1999/xlink" id="Layer_1" x="0" y="0" enable-background="new 0 0 100 67.5" version="1.1" viewBox="0 0 100 67.5" xml:space="preserve"><style type="text/css">.st0{fill:#fff}</style><switch><g><g><path d="M34.5 37.1c0 0-0.5-4.5 2.5-7.9 0 0 2-2.1 2.5-2.4 0.3-0.2 0-0.2 0-0.2 -0.1 0-0.1 0-0.1-0.1 0.1-0.5 0.4-2.3 3.1-4.5 0 0 0.9-0.7 1.3-0.3 0.4 0.4 0.5-1.6 0.2-2.3 -0.2-0.3-2.1-3.6-2.1-3.6 0 0-1.3 1.1-1.7 1.2 -0.2 0.1-0.4 0-0.6 0 -0.2 0-0.4-0.2-0.4-0.4 0-0.2-0.1-0.4 0-0.6 0.1-0.2 0.6-1.4 0.9-2.3 0.2-0.6 0.3-1.2 0.4-1.8L40.5 8c0 0 0.3-3.3 4.5-4.9l-0.6-0.2 0.4-0.8 0.9 0.3c0 0 0.2-1 0.6-1.2l1.1 0.2c-0.4 0.4-0.5 0.9-0.5 0.9s3.5-1.1 6.1 0c0 0 1.7 0.7 2.7 2.3 0 0 1.4 2 2.1 2.4 0 0 3.7 2 3.2 2.8 -0.4 0.8-3.2 0.4-3.6 0.3 0 0 0 0 0 0 0.1 0.1 0.2 0.3 0.2 0.6 0 0.4-0.2 0.7-0.2 0.7 0 0 0 0 0 0 0 0-0.1 0.3-0.1 0.4 0 0.2 0.2 0.4 0.2 0.4l2.1 3.1c0 0 0.5 0.6-1.4 1.1 0 0 0.1 0.7 0.4 1.1 0.3 0.4-0.3 0.4-0.3 0.4s2.2 0.7 2.9 2.9 1.3 2.6 1.3 2.6 0.7 0.5 0.9-1.6h1.8c0 0 0.7 0 0.7 0.5 0 0.5-0.5 3.1-2.4 3.4 -1.8 0.3-2.8-3.3-2.8-3.3s-0.4-2.8-2.3-4c0 0 0.1 0.3-0.5 0.8 0 0 0 0.1-0.1 0.1 0 0.2-0.2 0.7 0 1 0.2 0.3 0 1.1 0 1.1s-0.2 0.8-1.3 0.6c-1.3-0.2-2.7-0.1-2.7-0.1s-1.5 0-2.1 1.8c0 0 0 0.1 0 0.1 0.2 0.2 1.2 0.9 1.4 1.8 0.1 1.1 1.8 3.8 2.1 4.3 0 0 0 0.1-0.1 0.1 -0.2 0-0.5-0.1-0.8-0.2 -0.3-0.2 2.8 3 3.4 7H34.5z"/><path d="M34.8 36.9c0 0-0.5-4.5 2.5-7.9 0 0 2-2.1 2.5-2.4 0.3-0.2 0-0.2 0-0.2 -0.1 0-0.1 0-0.1-0.1 0.1-0.5 0.4-2.3 3.1-4.5 0 0 0.9-0.7 1.3-0.3 0.4 0.4 0.5-1.6 0.2-2.3 -0.2-0.3-2.1-3.6-2.1-3.6 0 0-1.3 1.1-1.7 1.2 -0.2 0.1-0.4 0-0.6 0 -0.2 0-0.4-0.2-0.4-0.4 0-0.2-0.1-0.4 0-0.6 0.1-0.2 0.6-1.4 0.9-2.3 0.2-0.6 0.3-1.2 0.4-1.8l0.2-3.7c0 0 0.3-3.3 4.5-4.9l-0.6-0.2L45.1 2l0.9 0.3c0 0 0.2-1 0.6-1.2l1.1 0.2c-0.4 0.4-0.5 0.9-0.5 0.9s3.5-1.1 6.1 0c0 0 1.7 0.7 2.7 2.3 0 0 1.4 2 2.1 2.4 0 0 3.7 2 3.2 2.8 -0.4 0.8-3.2 0.4-3.6 0.3 0 0 0 0 0 0 0.1 0.1 0.2 0.3 0.2 0.6 0 0.4-0.2 0.7-0.2 0.7 0 0 0 0 0 0 0 0-0.1 0.3-0.1 0.4 0 0.2 0.2 0.4 0.2 0.4l2.1 3.1c0 0 0.5 0.6-1.4 1.1 0 0 0.1 0.7 0.4 1.1 0.3 0.4-0.3 0.4-0.3 0.4s2.2 0.7 2.9 2.9 1.3 2.6 1.3 2.6 0.7 0.5 0.9-1.6h1.8c0 0 0.7 0 0.7 0.5 0 0.5-0.5 3.1-2.4 3.4C62 26.1 61 22.5 61 22.5s-0.4-2.8-2.3-4c0 0 0.1 0.3-0.5 0.8 0 0 0 0.1-0.1 0.1 0 0.2-0.2 0.7 0 1 0.2 0.3 0 1.1 0 1.1s-0.2 0.8-1.3 0.6C55.4 22 54 22.1 54 22.1s-1.5 0-2.1 1.8c0 0 0 0.1 0 0.1 0.2 0.2 1.2 0.9 1.4 1.8 0.1 1.1 1.8 3.8 2.1 4.3 0 0 0 0.1-0.1 0.1 -0.2 0-0.5-0.1-0.8-0.2 -0.3-0.2 2.8 3 3.4 7H34.8z" class="st0"/></g><g><path d="M2 47.3h2.9V62H2V47.3z" class="st0"/><path d="M14 62v-6c0-0.9-0.1-1.5-0.4-1.8 -0.2-0.4-0.7-0.6-1.2-0.6 -0.5 0-1 0.1-1.3 0.5 -0.4 0.3-0.6 0.7-0.8 1.1V62H7.6V51.5h2.2l0.3 1.4h0.1c0.3-0.4 0.7-0.8 1.3-1.2 0.5-0.3 1.2-0.5 2.1-0.5 0.5 0 1 0.1 1.4 0.2 0.4 0.1 0.7 0.4 1 0.7 0.3 0.3 0.5 0.8 0.6 1.3s0.2 1.2 0.2 2V62H14z" class="st0"/><path d="M23.3 59.1c0-0.3-0.1-0.5-0.4-0.7 -0.2-0.2-0.5-0.3-0.9-0.5 -0.3-0.1-0.7-0.3-1.2-0.4 -0.4-0.1-0.8-0.3-1.2-0.6 -0.3-0.3-0.6-0.6-0.9-1 -0.2-0.4-0.4-0.9-0.4-1.5 0-1 0.3-1.8 0.9-2.4 0.6-0.5 1.5-0.8 2.7-0.8 0.8 0 1.5 0.1 2.2 0.3 0.6 0.2 1.1 0.4 1.5 0.6l-0.6 2c-0.3-0.1-0.7-0.3-1.2-0.4 -0.5-0.1-1-0.2-1.5-0.2 -0.8 0-1.2 0.3-1.2 0.9 0 0.3 0.1 0.5 0.4 0.6 0.2 0.2 0.5 0.3 0.9 0.4 0.3 0.1 0.7 0.3 1.2 0.4 0.4 0.2 0.8 0.4 1.2 0.6s0.6 0.6 0.9 1c0.2 0.4 0.4 0.9 0.4 1.5 0 1.1-0.3 1.9-1 2.5 -0.7 0.6-1.7 0.9-3 0.9 -0.7 0-1.4-0.1-2.1-0.3 -0.6-0.2-1.2-0.4-1.6-0.7l0.8-2c0.3 0.2 0.7 0.4 1.3 0.5 0.5 0.2 1.1 0.3 1.6 0.3 0.4 0 0.7-0.1 1-0.2S23.3 59.5 23.3 59.1z" class="st0"/><path d="M27.8 51.5h2l0.3 1.3h0.1c0.4-0.5 0.8-0.9 1.3-1.2 0.5-0.3 1.1-0.4 1.8-0.4 1.3 0 2.3 0.4 3 1.2 0.7 0.8 1 2.2 1 4 0 0.9-0.1 1.7-0.3 2.4s-0.5 1.3-0.9 1.8 -0.9 0.9-1.5 1.2c-0.6 0.3-1.3 0.4-2 0.4 -0.4 0-0.8 0-1.1-0.1 -0.3-0.1-0.6-0.2-0.8-0.3v4.3h-2.7V51.5zM32.5 53.5c-0.5 0-0.9 0.1-1.2 0.4 -0.3 0.3-0.5 0.7-0.7 1.2v4.4c0.2 0.2 0.4 0.3 0.6 0.4s0.5 0.1 0.9 0.1c0.8 0 1.4-0.3 1.8-0.8 0.4-0.6 0.6-1.5 0.6-2.7 0-0.9-0.2-1.6-0.5-2.1C33.7 53.8 33.2 53.5 32.5 53.5z" class="st0"/><path d="M47.5 61.1c-0.4 0.3-1 0.6-1.7 0.8s-1.5 0.3-2.3 0.3c-1.7 0-2.9-0.5-3.7-1.5 -0.8-1-1.2-2.3-1.2-4.1 0-1.8 0.4-3.2 1.3-4.1s2.1-1.4 3.7-1.4c0.5 0 1 0.1 1.6 0.2s0.9 0.4 1.3 0.7c0.4 0.3 0.7 0.8 0.9 1.3 0.2 0.5 0.4 1.2 0.4 2 0 0.3 0 0.6-0.1 0.9 0 0.3-0.1 0.7-0.2 1h-6.3c0 0.9 0.3 1.5 0.7 2 0.4 0.4 1.1 0.7 2 0.7 0.6 0 1.1-0.1 1.5-0.3s0.8-0.4 1-0.5L47.5 61.1zM43.6 53.4c-0.7 0-1.2 0.2-1.6 0.6 -0.3 0.4-0.5 1-0.6 1.7h3.9c0.1-0.8-0.1-1.3-0.3-1.7S44.2 53.4 43.6 53.4z" class="st0"/><path d="M57.1 61.3c-0.4 0.3-0.9 0.5-1.5 0.7 -0.6 0.2-1.2 0.2-1.8 0.2 -0.8 0-1.5-0.1-2.1-0.4 -0.6-0.3-1.1-0.6-1.4-1.1 -0.4-0.5-0.6-1.1-0.8-1.8 -0.2-0.7-0.2-1.4-0.2-2.3 0-1.8 0.4-3.1 1.2-4.1 0.8-1 2-1.4 3.5-1.4 0.8 0 1.4 0.1 1.9 0.2s0.9 0.3 1.3 0.5l-0.6 2.2c-0.3-0.2-0.6-0.3-1-0.4s-0.7-0.1-1.1-0.1c-0.8 0-1.3 0.2-1.7 0.7 -0.4 0.5-0.6 1.3-0.6 2.4 0 0.4 0 0.9 0.1 1.2 0.1 0.4 0.2 0.7 0.4 1s0.5 0.5 0.8 0.7c0.3 0.2 0.7 0.2 1.1 0.2 0.5 0 0.9-0.1 1.2-0.2 0.3-0.1 0.6-0.3 0.9-0.4L57.1 61.3z" class="st0"/><path d="M62.2 57.6h-0.7V62h-2.7V47.3h2.7V56l0.6-0.3 2.4-4.2h3l-2.5 4 -1.1 0.8 1.2 0.8 2.8 4.9h-3.1L62.2 57.6z" class="st0"/><path d="M69 52.1c0.6-0.3 1.2-0.5 2-0.6s1.6-0.2 2.4-0.2c0.7 0 1.3 0.1 1.8 0.3 0.5 0.2 0.9 0.4 1.2 0.7s0.5 0.7 0.6 1.2c0.1 0.4 0.2 1 0.2 1.5 0 0.6 0 1.2-0.1 1.9 0 0.6-0.1 1.2-0.1 1.8 0 0.6 0 1.2 0.1 1.8s0.1 1.1 0.3 1.6h-2.2l-0.4-1.4h-0.1c-0.3 0.4-0.7 0.8-1.2 1.1 -0.5 0.3-1.1 0.5-1.9 0.5 -0.5 0-0.9-0.1-1.3-0.2 -0.4-0.1-0.7-0.4-1-0.6 -0.3-0.3-0.5-0.6-0.6-1 -0.2-0.4-0.2-0.8-0.2-1.2 0-0.6 0.1-1.2 0.4-1.6s0.7-0.8 1.2-1.1c0.5-0.3 1.2-0.5 1.9-0.6 0.7-0.1 1.6-0.1 2.5-0.1 0.1-0.8 0-1.3-0.2-1.7 -0.2-0.3-0.7-0.5-1.4-0.5 -0.5 0-1.1 0.1-1.7 0.2 -0.6 0.1-1.1 0.3-1.5 0.4L69 52.1zM72.4 59.9c0.5 0 1-0.1 1.3-0.4 0.3-0.2 0.6-0.5 0.7-0.8v-1.4c-0.4 0-0.8 0-1.2 0 -0.4 0-0.8 0.1-1.1 0.2 -0.3 0.1-0.6 0.2-0.7 0.4 -0.2 0.2-0.3 0.4-0.3 0.7 0 0.4 0.1 0.7 0.3 0.9C71.7 59.8 72 59.9 72.4 59.9z" class="st0"/><path d="M88.3 62c0 1.5-0.4 2.6-1.2 3.4 -0.8 0.7-2 1.1-3.5 1.1 -1 0-1.8-0.1-2.4-0.2 -0.6-0.1-1-0.3-1.3-0.4l0.6-2.2c0.3 0.1 0.7 0.3 1.1 0.4 0.4 0.1 1 0.2 1.6 0.2 1 0 1.6-0.2 1.9-0.6 0.3-0.4 0.5-1 0.5-1.7v-0.7h-0.1c-0.5 0.7-1.4 1-2.6 1 -1.4 0-2.4-0.4-3-1.3 -0.7-0.8-1-2.2-1-3.9 0-1.9 0.4-3.3 1.3-4.3 0.9-1 2.2-1.4 3.9-1.4 0.9 0 1.7 0.1 2.4 0.2s1.3 0.3 1.7 0.4V62zM83.7 60c0.5 0 0.9-0.1 1.2-0.4 0.3-0.2 0.5-0.6 0.7-1.1v-4.7c-0.4-0.2-1-0.3-1.6-0.3 -0.7 0-1.2 0.3-1.6 0.8 -0.4 0.5-0.6 1.4-0.6 2.5 0 1 0.2 1.8 0.5 2.3C82.6 59.7 83.1 60 83.7 60z" class="st0"/><path d="M99.1 61.1c-0.4 0.3-1 0.6-1.7 0.8s-1.5 0.3-2.3 0.3c-1.7 0-2.9-0.5-3.7-1.5 -0.8-1-1.2-2.3-1.2-4.1 0-1.8 0.4-3.2 1.3-4.1s2.1-1.4 3.7-1.4c0.5 0 1 0.1 1.6 0.2s0.9 0.4 1.3 0.7c0.4 0.3 0.7 0.8 0.9 1.3 0.2 0.5 0.4 1.2 0.4 2 0 0.3 0 0.6-0.1 0.9 0 0.3-0.1 0.7-0.2 1h-6.3c0 0.9 0.3 1.5 0.7 2 0.4 0.4 1.1 0.7 2 0.7 0.6 0 1.1-0.1 1.5-0.3s0.8-0.4 1-0.5L99.1 61.1zM95.2 53.4c-0.7 0-1.2 0.2-1.6 0.6 -0.3 0.4-0.5 1-0.6 1.7h3.9c0.1-0.8-0.1-1.3-0.3-1.7S95.8 53.4 95.2 53.4z" class="st0"/></g></g></switch></svg>